PathFileType	4	(X/Y/Z)	54_1_5_p0_0-254.trc
DataRate	CameraRate	NumFrames	NumMarkers	Units	OrigDataRate	OrigDataStartFrame	OrigNumFrames
59.0	59.0	5	27	m	59.0	95	255
Frame#	Time	RHip			RKnee			RAnkle			RBigToe			RSmallToe			RHeel			LHip			LKnee			LAnkle			LBigToe			LSmallToe			LHeel			Neck			Head			Nose			RShoulder			RElbow			RWrist			RThumb			RIndex			RPinky			LShoulder			LElbow			LWrist			LThumb			LIndex			LPinky			
		X1	Y1	Z1	X2	Y2	Z2	X3	Y3	Z3	X4	Y4	Z4	X5	Y5	Z5	X6	Y6	Z6	X7	Y7	Z7	X8	Y8	Z8	X9	Y9	Z9	X10	Y10	Z10	X11	Y11	Z11	X12	Y12	Z12	X13	Y13	Z13	X14	Y14	Z14	X15	Y15	Z15	X16	Y16	Z16	X17	Y17	Z17	X18	Y18	Z18	X19	Y19	Z19	X20	Y20	Z20	X21	Y21	Z21	X22	Y22	Z22	X23	Y23	Z23	X24	Y24	Z24	X25	Y25	Z25	X26	Y26	Z26	X27	Y27	Z27	
95	1.6101694915254237	0.24958914333983562	0.45461910128834127	1.1099460866218676	0.24759323724343818	0.47337773010037326	1.5182530938744638	0.2504175486807801	0.5129234957867598	1.9284860201286325	0.21491554892852843	0.32476260982018407	1.9234322374849153	0.2775279095595794	0.3589899894869831	1.947151472217522	0.2337001839735464	0.6179627273509214	2.0281279269937373	0.040977951330516245	0.48874999362559124	1.1160678572728986	0.04322589647952335	0.5241982870779973	1.5210995123140347	0.04743739089406137	0.5403441793686408	1.941292216582874	0.05501895229413405	0.34437623403602025	1.9268451883822126	0.006597320167407828	0.4085592778696489	1.9613135870887894	0.06646010051069665	0.5635183522285078	1.9851346282554754	0.15051495816146038	0.4264419356868532	0.5812923201292987	0.1346979987129689	0.3595537451288777	0.3311681924040331	0.12986968132236992	0.31233592284180994	0.4491082480742114	0.3243788968641802	0.45452157145203953	0.6601053457626169	0.3541451659787407	0.4873641339584189	0.8983585050854501	0.375498851173735	0.48952872217312865	1.1265943090008905	0.35615577448037733	0.45492192104606843	1.2212835258769235	0.339399196951319	0.44473797652292724	1.2704454828971434	0.33977183733538835	0.4673466832316655	1.2874451338743647	-0.005676991781236954	0.4792197197921982	0.6586033282840184	-0.032525514182482354	0.5364948022637535	0.8903044232494556	-0.019485067547085788	0.5874832251790237	1.075924492387102	0.0346666538030993	0.7026930321974144	1.2017188115566133	0.025767607152936245	0.7170111603505406	1.2274781729430444	9.69164370146268e-05	0.6716805218373028	1.1820870450565772
96	1.6271186440677967	0.2491499020399705	0.45714259809432706	1.1032690961299925	0.24753969680931662	0.47362626801633595	1.5184424317276128	0.24965897108138302	0.5115505429560888	1.9373187924265551	0.21885622321216583	0.3352551897290234	1.9305554201052495	0.2817190085304429	0.3697364701999811	1.9544536535788195	0.23234527753582634	0.6182455596127167	2.034254920576325	0.04064400333224951	0.4916608731025354	1.1088177402670365	0.047411819036642246	0.5362902527037959	1.5316064839808572	0.047311823903996734	0.5397439915906423	1.9412958064027501	0.05615030987693852	0.3435009528384689	1.9224546378738196	0.006655891118257648	0.40839932422390857	1.9611814045541984	0.06312132677642163	0.5608248247648445	1.988117801901423	0.14691952949752465	0.43891033745467656	0.5836461950518186	0.13168468547546697	0.3505610556697716	0.33015408798874735	0.1372096269330975	0.30302423124024974	0.4475404656145632	0.3246185786540796	0.4539924473031967	0.6635371693228066	0.35409402530687495	0.4874032594487498	0.8984036388540464	0.37524816176462594	0.48785814306940684	1.1347552117989645	0.34789555479933615	0.44937970239212593	1.225649079433069	0.33901370267264774	0.443235797711408	1.2734804829282886	0.3397303335517811	0.4664355175540498	1.2829441446372012	-0.005956396053856947	0.47978693296537794	0.6514197932629555	-0.02800288391854709	0.5473297860639639	0.8863398920620692	-0.04339560365254228	0.5573619556943424	1.087023129323542	-0.014617401444507929	0.6257182795075555	1.2114643329562569	-0.041434309842049225	0.6146928247195976	1.2336041369747388	-0.04534051722402243	0.6115658797607302	1.2110155676751868
97	1.6440677966101696	0.24973983136025507	0.4579643290442887	1.1080137006759956	0.24758533290500542	0.48096667867470505	1.5223792790076738	0.24970390441950022	0.5116752421534276	1.9374510038920516	0.21891910595587866	0.33553284579564935	1.930761938526641	0.2817739719798597	0.3699530042032356	1.9546166788060881	0.23221293098522727	0.6179568436530942	2.0341842473524796	0.039997117437792044	0.49179686771941405	1.1127948463143484	0.04748058770749898	0.5366462248820939	1.5319483808463257	0.0474058625703647	0.5399227627758957	1.941278178546399	0.05944018150869221	0.3311433243878145	1.9175441375848152	0.006712144381414948	0.4082986598526539	1.9611399924220576	0.0674871595416237	0.5649010509947984	1.9906619403467467	0.1469834288579409	0.439196643089765	0.5804499175877441	0.13794308432409608	0.36918803033820025	0.3319122521607491	0.12970095453427072	0.31207080179335756	0.44565476701863693	0.32458362421343306	0.45419556988478665	0.6635405560249449	0.3541575868987949	0.4875107500391374	0.8984956116576196	0.37470605716716476	0.48768736991202166	1.1389488603128841	0.3410142540870697	0.4431011441359884	1.2449613786914688	0.33895820554702805	0.4420640560730187	1.2778052750047006	0.3446821257741294	0.4669318743790778	1.292385631243763	-0.00903051756748277	0.46951086965530614	0.6530968924492118	-0.030327692148347546	0.5375999489759512	0.887138220099643	-0.043347741489511905	0.5601926547810305	1.0960736208476856	-0.009981295433480796	0.6467092572255753	1.215846225884759	-0.0654389867664089	0.517158064335026	1.2155168997015433	-0.045039002917911006	0.6179419143259192	1.2238746646445184
98	1.6610169491525424	0.24906999898575655	0.4573197648101056	1.1034027253334509	0.24752266822391053	0.47349532961415874	1.5184287538281982	0.2451532021489314	0.5015571198432904	1.9258931334212808	0.21501251038425087	0.32468575086485396	1.923409585175768	0.27756869452666016	0.35902260700897654	1.947186579846989	0.23228521382715778	0.6180696611337627	2.0342701688781517	0.039978386168302	0.4916108343747087	1.1127660010189344	0.047371332985411914	0.536400791660597	1.5318104911847643	0.0473674026265529	0.5399796789003032	1.9412179647402423	0.05936674664325074	0.3309710235990451	1.9174058700007148	0.006684661758939265	0.4083154685368146	1.9611970566962573	0.06196513485349778	0.5588452997814453	1.9821678209544251	0.1472095751252101	0.4387273391908361	0.5801916392386112	0.13447173431254092	0.38147035477493474	0.3298357920949476	0.13272342318157965	0.3218336192142836	0.44407673672023595	0.32489730647061954	0.45451636630876435	0.6600926884197478	0.3543764309434754	0.48622206994660966	0.9020439643241458	0.37114993514341765	0.4760995706564053	1.1394216427066368	0.3347347513117838	0.44026306254379866	1.2504912238998533	0.3441128386611704	0.4517038462380632	1.283206900761868	0.35380808601092334	0.47920583047629317	1.2984652437285038	-0.00917008754606385	0.4689111253182018	0.6530130008527165	-0.025271327708963485	0.5232648296651339	0.8821999988976038	-0.04398565518331109	0.5584986804200449	1.0961510858030208	-0.014516233127359017	0.6305735616466162	1.2164648021538929	-0.0657353457852636	0.5171627269529929	1.2272929789534517	-0.050192851689287665	0.6303044946798675	1.226850096402045
99	1.6779661016949152	0.24908498736050602	0.45735556119779197	1.1034159205733614	0.2433721236244764	0.47028988833635743	1.5167287519564396	0.24619537107192596	0.5010162720263199	1.9207525852495644	0.2147739544790951	0.3244657166105062	1.9231423891416608	0.2773777090666805	0.35889525949208634	1.9468994202106602	0.23273841795537156	0.6191611927151456	2.0345759892736357	0.04012535449579397	0.4903520707275405	1.1164437334142299	0.04745976329177734	0.5366103850345332	1.5318922651307048	0.047513366425987316	0.5405364784484855	1.9412156583230311	0.055080634724606045	0.34401337671584664	1.9264838535826463	0.006360660208582248	0.41042113612807746	1.957701036218044	0.06648498292392005	0.5632016025658859	1.9850928970874093	0.14719065355225783	0.43945851964915983	0.5770943272028138	0.1379341487892156	0.3913976329933753	0.3306996036038501	0.1328055655893432	0.3221889377206428	0.443996134932087	0.32186784894883697	0.46713948279514905	0.6627657591986904	0.35853650587179076	0.48794860153862324	0.9023862849574056	0.3722019835947291	0.47698984762104296	1.1391439123542233	0.33677901591709863	0.4412286520293031	1.2452949816366004	0.34003934166097194	0.44134247913283386	1.2742839321240094	0.3538092611412517	0.47094174407635586	1.290662399855653	-0.00913204017475743	0.46871832471224084	0.6530456404889767	-0.03480048591979699	0.5314937867027644	0.8934928539457121	-0.04543523252850828	0.5554860002024713	1.1051721810391424	-0.05306194852381783	0.5140756720361017	1.2083163047677778	-0.04037815326251871	0.6171178538490972	1.25216306465124	-0.07675007231599898	0.5197625101910179	1.2135365054443559
